<svg width="8" height="11" viewBox="0 0 8 11" fill="none" xmlns="http://www.w3.org/2000/svg">
<path d="M4.10188 0.0599995C4.75522 0.0599995 5.31055 0.167333 5.76788 0.381999C6.23455 0.587333 6.58455 0.867333 6.81788 1.222C7.05122 1.57667 7.16788 1.96867 7.16788 2.398C7.16788 2.78067 7.09788 3.10733 6.95788 3.378C6.82722 3.64867 6.66855 3.868 6.48188 4.036C6.29522 4.204 6.04788 4.4 5.73988 4.624C5.36655 4.876 5.09122 5.10467 4.91388 5.31C4.73655 5.506 4.64788 5.76267 4.64788 6.08V6.43H2.63188V5.996C2.63188 5.55733 2.69722 5.18867 2.82788 4.89C2.96788 4.582 3.13122 4.344 3.31788 4.176C3.51388 3.99867 3.75655 3.80733 4.04588 3.602C4.32588 3.41533 4.53122 3.252 4.66188 3.112C4.79255 2.972 4.85788 2.79933 4.85788 2.594C4.85788 2.342 4.76922 2.146 4.59188 2.006C4.42388 1.866 4.18588 1.796 3.87788 1.796C3.28988 1.796 2.74388 2.08067 2.23988 2.65L0.825883 1.558C1.67522 0.559333 2.76722 0.0599995 4.10188 0.0599995ZM3.66788 7.704C4.01322 7.704 4.30722 7.83 4.54988 8.082C4.80188 8.32467 4.92788 8.61867 4.92788 8.964C4.92788 9.31867 4.80188 9.622 4.54988 9.874C4.30722 10.1167 4.01322 10.238 3.66788 10.238C3.32255 10.238 3.02388 10.1167 2.77188 9.874C2.52922 9.622 2.40788 9.31867 2.40788 8.964C2.40788 8.61867 2.52922 8.32467 2.77188 8.082C3.02388 7.83 3.32255 7.704 3.66788 7.704Z" fill="#999999"/>
</svg>
