<?xml version="1.0" encoding="utf-8"?><svg xmlns="http://www.w3.org/2000/svg" xmlns:xlink="http://www.w3.org/1999/xlink"><symbol viewBox="0 0 12 18" id="OK" xmlns="http://www.w3.org/2000/svg"><path d="M9.82 11.742c-.785.492-1.857.809-3.214.95l.75.738 2.715 2.672c.31.304.393.656.25 1.054-.143.422-.405.68-.786.774-.357.117-.714.047-1.072-.211l-2.75-2.707-2.716 2.672c-.31.304-.678.386-1.107.246-.405-.14-.667-.399-.786-.774-.095-.351 0-.703.286-1.054l2.715-2.707.75-.704c-1.405-.14-2.489-.457-3.25-.949-.644-.422-1.06-.762-1.251-1.02-.19-.28-.179-.632.035-1.054a.96.96 0 01.68-.563c.333-.093.75.024 1.25.352.095.07.238.164.428.281.19.117.572.27 1.144.457a6.032 6.032 0 001.821.282c.62 0 1.215-.082 1.787-.247.571-.164.976-.34 1.214-.527l.393-.246c.5-.328.905-.445 1.215-.352.333.07.584.258.75.563.072.258.12.457.143.598.024.14-.036.304-.178.492a3.092 3.092 0 01-.465.492 20.99 20.99 0 01-.75.492zM1.069 4.57c0-1.265.453-2.343 1.358-3.234C3.33.446 4.426 0 5.712 0c.834 0 1.608.21 2.323.633a4.34 4.34 0 011.679 1.652c.428.68.643 1.442.643 2.285 0 1.242-.453 2.309-1.358 3.2-.905.89-2 1.335-3.287 1.335-1.286 0-2.381-.445-3.286-1.335-.905-.891-1.358-1.957-1.358-3.2zm2.358 0c0 .61.226 1.137.679 1.582.452.422.988.633 1.607.633.62 0 1.156-.21 1.608-.633C7.773 5.707 8 5.18 8 4.57c0-.633-.226-1.16-.679-1.582a2.215 2.215 0 00-1.608-.668c-.404 0-.785.106-1.143.317a2.17 2.17 0 00-.857.808 2.2 2.2 0 00-.286 1.125z"/></symbol><symbol viewBox="0 0 11 19" id="arrow-left" xmlns="http://www.w3.org/2000/svg"><path fill-rule="evenodd" clip-rule="evenodd" d="M10.56 18.56a1.5 1.5 0 01-2.12 0l-8-8a1.5 1.5 0 010-2.12l8-8a1.5 1.5 0 012.12 2.12L3.622 9.5l6.94 6.94a1.5 1.5 0 010 2.12z" fill-opacity=".4"/></symbol><symbol viewBox="0 0 11 19" id="arrow-right" xmlns="http://www.w3.org/2000/svg"><path fill-rule="evenodd" clip-rule="evenodd" d="M.44.44a1.5 1.5 0 012.12 0l8 8a1.5 1.5 0 010 2.12l-8 8a1.5 1.5 0 01-2.12-2.12L7.378 9.5.439 2.56a1.5 1.5 0 010-2.12z" fill-opacity=".4"/></symbol><symbol viewBox="0 0 10 11" id="cross" xmlns="http://www.w3.org/2000/svg"><path d="M.833.257L0 1.091l4.167 4.166L0 9.424l.834.833L5 6.091l4.167 4.166.833-.833-4.167-4.167L10 1.091 9.167.257 5 4.424.833.257z"/></symbol><symbol viewBox="0 0 11 18" id="facebook" xmlns="http://www.w3.org/2000/svg"><path d="M10.152 10.125H7.414V18h-3.65v-7.875H.81v-3.27h2.956v-2.46c0-.938.182-1.735.547-2.391A3.523 3.523 0 015.845.527C6.526.176 7.305 0 8.181 0c.39 0 .803.023 1.24.07.439.024.78.059 1.023.106l.365.035v2.777h-1.46c-.682 0-1.18.176-1.497.528-.292.328-.438.738-.438 1.23v2.11h3.249l-.511 3.269z"/></symbol><symbol viewBox="0 0 14 18" id="flag" xmlns="http://www.w3.org/2000/svg"><path d="M0 18V.099L13.916 0 14 18l-7.042-4.648L0 18z"/></symbol><symbol viewBox="0 0 16 16" id="instagram" xmlns="http://www.w3.org/2000/svg"><path fill-rule="evenodd" clip-rule="evenodd" d="M0 4a4 4 0 014-4h8a4 4 0 014 4v8a4 4 0 01-4 4H4a4 4 0 01-4-4V4zm12 4a4 4 0 11-8 0 4 4 0 018 0zm0-3a1 1 0 100-2 1 1 0 000 2z"/></symbol><symbol viewBox="0 0 20 20" id="loupe" xmlns="http://www.w3.org/2000/svg"><path fill-rule="evenodd" clip-rule="evenodd" d="M13.047 12.15a7.329 7.329 0 00-.393-9.993C9.76-.72 5.066-.72 2.171 2.157a7.33 7.33 0 000 10.414c2.575 2.557 6.571 2.84 9.46.85l6.7 6.31a1.023 1.023 0 001.383 0 .883.883 0 000-1.302l-6.667-6.28zM11.4 3.459a5.443 5.443 0 010 7.81c-2.202 2.157-5.772 2.157-7.974 0a5.443 5.443 0 010-7.81c2.202-2.157 5.772-2.157 7.974 0z" fill-opacity=".4"/></symbol><symbol viewBox="0 0 29 32" id="play" xmlns="http://www.w3.org/2000/svg"><path fill-rule="evenodd" clip-rule="evenodd" d="M1.832 30.182L27.168 16 1.832 1.818v28.364zM28.07 17.58a1.807 1.807 0 000-3.16L2.734.238C1.512-.446 0 .428 0 1.818v28.364c0 1.39 1.512 2.264 2.734 1.58L28.069 17.58z" fill-opacity=".7"/></symbol><symbol viewBox="0 0 8 11" id="question" xmlns="http://www.w3.org/2000/svg"><path d="M4.102.06c.653 0 1.209.107 1.666.322.467.205.817.485 1.05.84.233.355.35.747.35 1.176 0 .383-.07.71-.21.98-.13.27-.29.49-.476.658a9.399 9.399 0 01-.742.588c-.373.252-.649.48-.826.686-.177.196-.266.453-.266.77v.35H2.632v-.434c0-.439.065-.807.196-1.106.14-.308.303-.546.49-.714.196-.177.439-.369.728-.574a3.6 3.6 0 00.616-.49.73.73 0 00.196-.518c0-.252-.089-.448-.266-.588-.168-.14-.406-.21-.714-.21-.588 0-1.134.285-1.638.854L.826 1.558C1.676.559 2.767.06 4.102.06zm-.434 7.644c.345 0 .64.126.882.378.252.243.378.537.378.882 0 .355-.126.658-.378.91a1.201 1.201 0 01-.882.364c-.345 0-.644-.121-.896-.364a1.265 1.265 0 01-.364-.91c0-.345.121-.64.364-.882.252-.252.55-.378.896-.378z"/></symbol><symbol viewBox="0 0 18 15" id="twitter" xmlns="http://www.w3.org/2000/svg"><path d="M16.137 3.75c.023.096.035.252.035.469a11.02 11.02 0 01-.703 3.822 12.17 12.17 0 01-2.004 3.461c-.844 1.034-1.945 1.875-3.305 2.524-1.36.65-2.86.974-4.5.974-2.062 0-3.95-.565-5.66-1.695.258.024.55.036.879.036 1.71 0 3.246-.54 4.605-1.622-.82 0-1.546-.24-2.18-.721A3.914 3.914 0 012.04 9.123c.234.024.457.036.668.036.328 0 .656-.036.984-.109a3.547 3.547 0 01-1.511-.72 3.988 3.988 0 01-1.056-1.3 3.817 3.817 0 01-.387-1.694v-.073a3.41 3.41 0 001.653.505C1.289 5 .738 3.942.738 2.596c0-.673.176-1.31.528-1.91a10.295 10.295 0 003.34 2.812A10.143 10.143 0 008.858 4.65a5.386 5.386 0 01-.07-.865c0-1.034.352-1.923 1.055-2.668C10.57.373 11.438 0 12.445 0c1.078 0 1.98.397 2.707 1.19a7.395 7.395 0 002.356-.902A3.742 3.742 0 0115.89 2.38 7.777 7.777 0 0018 1.767a8.232 8.232 0 01-1.863 1.983z"/></symbol><symbol viewBox="0 0 20 11" id="vk" xmlns="http://www.w3.org/2000/svg"><path d="M19.229.756c-.07.344-.353.905-.847 1.685-.47.779-.906 1.466-1.306 2.062-.4.573-.611.871-.635.894-.14.206-.211.355-.211.447 0 .091.07.252.211.481l.212.24.565.55c.211.207.447.447.705.723.26.275.494.55.706.824.235.253.435.516.6.791.188.275.318.504.388.688.165.572-.07.859-.706.859H16.83c-.164 0-.305-.023-.423-.069a1.506 1.506 0 01-.388-.24 2.99 2.99 0 01-.388-.379 19.754 19.754 0 00-.53-.584c-.235-.252-.47-.493-.705-.722-.941-.87-1.635-1.306-2.082-1.306-.283 0-.447.08-.494.24-.047.161-.07.62-.07 1.376.023.366.034.664.034.893 0 .275-.094.482-.282.62-.188.114-.6.171-1.235.171-1.106 0-2.223-.32-3.352-.963-1.13-.641-2.117-1.558-2.964-2.75A22.476 22.476 0 011.938 4.16C1.421 3.105 1.08 2.303.915 1.753.75 1.203.668.813.668.584.668.194.903 0 1.374 0h2.082c.258 0 .447.057.564.172.141.114.259.32.353.619.494 1.398 1.094 2.647 1.8 3.746.729 1.1 1.282 1.65 1.658 1.65.141 0 .235-.045.283-.137.07-.115.105-.32.105-.619v-2.99a2.695 2.695 0 00-.176-.825c-.094-.23-.188-.39-.282-.482L7.478.791a.606.606 0 01-.105-.31c0-.091.023-.172.07-.24A.622.622 0 017.62.069.64.64 0 017.902 0h3.282c.376 0 .564.252.564.756v3.988c0 .39.106.584.318.584.235 0 .564-.206.988-.619.447-.48.882-1.065 1.305-1.753.424-.687.741-1.26.953-1.718l.318-.654c.164-.39.458-.584.882-.584h2.082c.564 0 .776.252.635.756z"/></symbol><symbol viewBox="0 0 20 13" id="youtube" xmlns="http://www.w3.org/2000/svg"><path d="M19.145 2.031c.07.271.127.61.174 1.016.07.406.116.812.139 1.219a18 18 0 01.035 1.083c.023.338.034.62.034.846V6.5c0 2.031-.127 3.532-.382 4.503a2.35 2.35 0 01-.627 1.015 2.428 2.428 0 01-1.079.61c-.44.113-1.276.203-2.505.27-1.23.046-2.355.08-3.375.102h-1.532c-3.967 0-6.437-.124-7.412-.372-.905-.249-1.473-.79-1.705-1.625-.116-.43-.209-1.016-.278-1.76C.585 8.474.55 7.831.527 7.312V6.5c0-2.009.128-3.498.383-4.469.116-.406.325-.756.626-1.05a2.428 2.428 0 011.08-.609C3.055.26 3.89.181 5.12.135 6.35.068 7.475.023 8.496 0h1.531c3.967 0 6.438.124 7.412.372a2.43 2.43 0 011.08.61c.3.293.51.643.626 1.05zM8.079 9.276L13.055 6.5 8.079 3.758v5.518z"/></symbol></svg>